<svg xmlns="http://www.w3.org/2000/svg" viewBox="0 0 512 512">
<rect x="76" y="76" width="360" height="360" rx="64" fill="none" stroke="#111827" stroke-width="18"/>
<!-- pins -->
<line x1="140" y1="76" x2="140" y2="52" stroke="#111827" stroke-width="14" stroke-linecap="round"/><line x1="198" y1="76" x2="198" y2="52" stroke="#111827" stroke-width="14" stroke-linecap="round"/><line x1="256" y1="76" x2="256" y2="52" stroke="#111827" stroke-width="14" stroke-linecap="round"/><line x1="314" y1="76" x2="314" y2="52" stroke="#111827" stroke-width="14" stroke-linecap="round"/>
<line x1="140" y1="436" x2="140" y2="460" stroke="#111827" stroke-width="14" stroke-linecap="round"/><line x1="198" y1="436" x2="198" y2="460" stroke="#111827" stroke-width="14" stroke-linecap="round"/><line x1="256" y1="436" x2="256" y2="460" stroke="#111827" stroke-width="14" stroke-linecap="round"/><line x1="314" y1="436" x2="314" y2="460" stroke="#111827" stroke-width="14" stroke-linecap="round"/>
<line x1="76" y1="140" x2="52" y2="140" stroke="#111827" stroke-width="14" stroke-linecap="round"/><line x1="76" y1="198" x2="52" y2="198" stroke="#111827" stroke-width="14" stroke-linecap="round"/><line x1="76" y1="256" x2="52" y2="256" stroke="#111827" stroke-width="14" stroke-linecap="round"/><line x1="76" y1="314" x2="52" y2="314" stroke="#111827" stroke-width="14" stroke-linecap="round"/>
<line x1="436" y1="140" x2="460" y2="140" stroke="#111827" stroke-width="14" stroke-linecap="round"/><line x1="436" y1="198" x2="460" y2="198" stroke="#111827" stroke-width="14" stroke-linecap="round"/><line x1="436" y1="256" x2="460" y2="256" stroke="#111827" stroke-width="14" stroke-linecap="round"/><line x1="436" y1="314" x2="460" y2="314" stroke="#111827" stroke-width="14" stroke-linecap="round"/>
<line x1="170" y1="170" x2="342" y2="342" stroke="#111827" stroke-width="34" stroke-linecap="round"/>
<line x1="342" y1="170" x2="170" y2="342" stroke="#111827" stroke-width="34" stroke-linecap="round"/>
</svg>